# xmcd CD database file
#
# Track frame offsets:
#	150
#	11756
#	27048
#	52414
#	70651
#	79892
#	93838
#	115235
#	133786
#	146696
#	150862
#
# Disc length: 2122 seconds
#
# Revision: 2
# Processed by: cddbd v1.5PL3 Copyright (c) Steve Scherf et al.
# Submitted via: CDex 1.51
#
DISCID=8c08480b
DTITLE=Умка и броневичок - Заначка
DYEAR=2001
DGENRE=Rock and Roll
TTITLE0=Метроном
TTITLE1=Поздно пить таблетки
TTITLE2=С горы упасть
TTITLE3=Дерево без корней
TTITLE4=Пингвины и тюлени
TTITLE5=Никому не принадлежишь
TTITLE6=Заначка
TTITLE7=Уважаемые пассажиры
TTITLE8=Рок-н-ролл
TTITLE9=Небесная дверь
TTITLE10=Иногда не здесь
EXTD=YEAR: 2001
EXTT0=
EXTT1=
EXTT2=
EXTT3=
EXTT4=
EXTT5=
EXTT6=
EXTT7=
EXTT8=
EXTT9=
EXTT10=
PLAYORDER=
